<svg width="25" height="35" viewBox="0 0 25 35" fill="none" xmlns="http://www.w3.org/2000/svg">
<path fill-rule="evenodd" clip-rule="evenodd" d="M0 0H25V7H0V0Z" fill="#10151D"/>
<path fill-rule="evenodd" clip-rule="evenodd" d="M12.5 35C19.4036 35 25 29.4036 25 22.5C25 15.5964 19.4036 10 12.5 10C5.59644 10 0 15.5964 0 22.5C0 29.4036 5.59644 35 12.5 35ZM12.5 28C15.5376 28 18 25.5376 18 22.5C18 19.4624 15.5376 17 12.5 17C9.46243 17 7 19.4624 7 22.5C7 25.5376 9.46243 28 12.5 28Z" fill="#10151D"/>
</svg>
